<?xml version="1.0" encoding="utf-8"?>
<svg version="1.1" xmlns="http://www.w3.org/2000/svg" x="0px" y="0px" viewBox="0 0 1000 1000" enable-background="new 0 0 1000 1000" xml:space="preserve">
<g><g transform="translate(0.000000,511.000000) scale(0.100000,-0.100000)"><path d="M310.5,4638.5c-199-60.4-277.2-333.1-145.3-500.8c96.1-120.7,123-125.2,796-125.2h621.6l219.1-778.1c118.5-427,216.9-787,216.9-800.4s87.2-330.9,192.3-704.3C2316,1356.3,2526.2,602.8,2680.5,57.3c154.3-545.5,277.2-999.4,272.8-1012.8c-4.5-11.2-64.8-44.7-136.4-71.6C2130.5-1308.8,1949.4-2221,2477-2750.9c143.1-143.1,395.7-275,565.7-295.1c89.4-8.9,116.3-20.1,107.3-44.7c-6.7-17.9-22.4-96.2-35.8-176.6c-69.3-433.8,183.3-894.3,597-1086.6c194.5-91.7,487.4-114,713.2-51.4c351,93.9,637.2,398,724.4,766.9c26.8,116.3,20.1,386.8-13.4,523.2l-13.4,62.6h1390.7h1390.7l-15.7-49.2c-9-29.1-20.1-143.1-26.8-254.9c-22.4-395.7,136.4-711,467.3-927.9c183.3-116.3,366.7-161,626-149.8c183.3,6.7,228.1,17.9,375.6,89.4c212.4,102.8,398,288.4,498.6,503.1c67.1,145.3,71.6,165.4,71.6,420.3c0,230.3-6.7,286.2-53.7,398c-96.1,243.7-333.1,478.5-583.5,581.3l-123,49.2L6132.6-2382c-2797,11.2-3011.7,13.4-3078.7,49.2c-261.6,143.1-261.6,518.7,0,661.8c67.1,35.8,261.6,38,2676.3,49.2l2604.7,11.2l147.6,71.5c174.4,87.2,335.4,248.2,411.4,415.9c29.1,64.8,245.9,892.1,480.7,1837.9c391.3,1578.5,427,1732.8,415.8,1866.9c-20.1,277.2-152,518.7-366.7,670.7C9171.1,3433.4,9464,3420,5897.9,3420H2723l-123-49.2c-67.1-29.1-127.4-42.5-136.4-33.5c-8.9,9-98.4,310.8-199,670.8l-185.6,652.9l-851.9-2.2C759.9,4658.6,346.3,4647.4,310.5,4638.5z M3657.5,2353.5c44.7-212.4,82.7-400.2,82.7-413.6c0-22.4-100.6-29.1-433.8-29.1H2875l-82.7,290.7c-91.7,328.7-96.1,371.1-44.7,442.7c55.9,80.5,107.3,91.7,480.7,91.7l346.6,2.2L3657.5,2353.5z M5596,2324.4v-413.6h-570.1c-313,0-570.1,6.7-570.1,13.4c0,6.7-35.8,172.2-78.3,368.9c-42.5,196.7-78.3,377.9-78.3,402.5c0,40.2,22.4,42.5,648.4,42.5H5596V2324.4z M7608.3,2722.4c0-11.2-35.8-196.7-80.5-413.6l-82.7-398H6866h-576.8v413.6V2738h659.6C7310.9,2738,7608.3,2731.3,7608.3,2722.4z M9052.6,2664.3c69.3-80.5,67.1-140.9-20.1-474l-71.6-268.3l-395.7-6.7c-386.8-4.5-398-4.5-398,40.2c0,38,100.6,538.8,145.3,733.3c13.4,51.4,13.4,51.4,348.8,44.7l337.6-6.7L9052.6,2664.3z M3988.5,855.5c44.7-201.2,73.8-371.1,64.8-382.3c-6.7-9-183.3-13.4-391.3-11.2l-377.9,6.7l-107.3,368.9c-58.1,203.5-107.3,371.1-107.3,375.6c0,2.2,187.8,4.5,420.3,4.5H3908L3988.5,855.5z M5591.5,844.3l-6.7-375.6h-402.5h-402.5l-71.5,313c-38,172.2-76,339.8-82.7,375.6l-11.2,60.4h489.7H5596L5591.5,844.3z M7295.3,1211c0-2.2-35.8-169.9-78.3-371.1c-42.5-201.2-78.3-368.9-78.3-373.4c0-4.5-190-8.9-424.8-8.9h-424.8v380.1v380.1h503.1C7069.4,1217.7,7295.3,1215.4,7295.3,1211z M8694.9,844.3L8601,468.7l-373.4-6.7c-290.7-4.5-373.4,0-373.4,22.4c0,15.6,31.3,187.8,71.6,382.3l73.8,351H8393h395.8L8694.9,844.3z M4292.5-537.4c105.1-456.1,125.2-413.6-196.8-413.6c-415.9,0-415.9,0-545.5,458.3C3463-184.2,3434-211,3856.5-217.7l364.4-6.7L4292.5-537.4z M5584.8-582.2v-357.7l-232.5-6.7c-127.4-2.2-241.5,2.2-252.6,13.4c-22.4,22.4-172.2,679.7-158.8,704.3c6.7,8.9,152,13.4,326.4,11.2l317.5-6.7V-582.2z M6982.2-242.3c0-44.7-134.2-666.3-147.6-688.6c-6.7-11.2-131.9-20.1-279.5-20.1h-266v368.9v368.9h346.6C6910.7-213.3,6982.2-220,6982.2-242.3z M8413.2-262.5c0-29.1-31.3-165.4-67.1-306.3c-91.7-362.2-98.4-368.9-460.6-377.9c-154.3-4.5-292.9-2.2-308.6,2.2c-22.4,9-13.4,87.2,42.5,346.6c40.2,183.3,78.3,346.5,87.2,360c11.2,15.6,131.9,24.6,362.2,24.6C8410.9-213.3,8413.2-213.3,8413.2-262.5z M4310.4-3117.6c207.9-118.5,225.8-406.9,35.8-567.9c-161-136.4-411.4-78.3-509.8,118.5c-62.6,123-64.8,183.3-6.7,304.1C3921.4-3072.9,4122.6-3012.5,4310.4-3117.6z M9081.7-3124.3c78.3-49.2,156.5-190,158.7-283.9c0-93.9-87.2-243.7-172.2-297.4c-225.8-138.6-520.9,26.8-520.9,288.4C8547.3-3128.8,8831.3-2972.3,9081.7-3124.3z"/></g></g>
</svg>